<?xml version="1.0" encoding="UTF-8" standalone="no"?>
<!-- Generator: Adobe Illustrator 16.0.0, SVG Export Plug-In . SVG Version: 6.00 Build 0)  -->

<svg
   xmlns:dc="http://purl.org/dc/elements/1.1/"
   xmlns:cc="http://creativecommons.org/ns#"
   xmlns:rdf="http://www.w3.org/1999/02/22-rdf-syntax-ns#"
   xmlns:svg="http://www.w3.org/2000/svg"
   xmlns="http://www.w3.org/2000/svg"
   xmlns:sodipodi="http://sodipodi.sourceforge.net/DTD/sodipodi-0.dtd"
   xmlns:inkscape="http://www.inkscape.org/namespaces/inkscape"
   version="1.1"
   id="Layer_1"
   x="0px"
   y="0px"
   width="1000px"
   height="212.396px"
   viewBox="-194 289.802 1000 212.396"
   enable-background="new -194 289.802 1000 212.396"
   xml:space="preserve"
   sodipodi:docname="Yamaha Print.svg"
   inkscape:version="0.92.2 (5c3e80d, 2017-08-06)"><metadata
     id="metadata1703"><rdf:RDF><cc:Work
         rdf:about=""><dc:format>image/svg+xml</dc:format><dc:type
           rdf:resource="http://purl.org/dc/dcmitype/StillImage" /><dc:title></dc:title></cc:Work></rdf:RDF></metadata><defs
     id="defs1701"><radialGradient
       id="SVGID_2_"
       cx="-11724.914"
       cy="-3164.0698"
       r="3767.3872"
       gradientTransform="matrix(0.0642,0,0,0.0642,565.5225,503.5067)"
       gradientUnits="userSpaceOnUse"><stop
         offset="0"
         style="stop-color:#E3EAED"
         id="stop1329" /><stop
         offset="0.1822"
         style="stop-color:#EEF2F4"
         id="stop1331" /><stop
         offset="0.3876"
         style="stop-color:#FFFFFF"
         id="stop1333" /><stop
         offset="0.4578"
         style="stop-color:#FBFCFC"
         id="stop1335" /><stop
         offset="0.5241"
         style="stop-color:#F0F1F4"
         id="stop1337" /><stop
         offset="0.5889"
         style="stop-color:#DDE0E5"
         id="stop1339" /><stop
         offset="0.6527"
         style="stop-color:#C2C8D1"
         id="stop1341" /><stop
         offset="0.7153"
         style="stop-color:#A0A9B8"
         id="stop1343" /><stop
         offset="0.7416"
         style="stop-color:#8F9AAB"
         id="stop1345" /><stop
         offset="0.7775"
         style="stop-color:#A7B0BE"
         id="stop1347" /><stop
         offset="0.8504"
         style="stop-color:#D1D7E0"
         id="stop1349" /><stop
         offset="0.8876"
         style="stop-color:#E2E6ED"
         id="stop1351" /><stop
         offset="0.9038"
         style="stop-color:#D9DEE6"
         id="stop1353" /><stop
         offset="0.9303"
         style="stop-color:#C1C9D3"
         id="stop1355" /><stop
         offset="0.9636"
         style="stop-color:#99A6B5"
         id="stop1357" /><stop
         offset="1"
         style="stop-color:#667A8D"
         id="stop1359" /></radialGradient><linearGradient
       id="SVGID_3_"
       gradientUnits="userSpaceOnUse"
       x1="-7016.874"
       y1="-3182.3159"
       x2="-5908.6455"
       y2="-2074.0874"
       gradientTransform="matrix(0.1284,0,0,0.1284,739.7501,731.2684)"><stop
         offset="0"
         style="stop-color:#FFFFFF"
         id="stop1364" /><stop
         offset="1"
         style="stop-color:#58595B"
         id="stop1366" /></linearGradient><linearGradient
       id="SVGID_4_"
       gradientUnits="userSpaceOnUse"
       x1="-6015.5024"
       y1="-2117.1743"
       x2="-6854.3003"
       y2="-2955.9722"
       gradientTransform="matrix(0.1284,0,0,0.1284,739.7501,731.2684)"><stop
         offset="0"
         style="stop-color:#FFFFFF"
         id="stop1371" /><stop
         offset="1"
         style="stop-color:#58595B"
         id="stop1373" /></linearGradient><linearGradient
       id="SVGID_5_"
       gradientUnits="userSpaceOnUse"
       x1="-1746.1846"
       y1="-2227.3623"
       x2="-1746.1846"
       y2="-2335.908"
       gradientTransform="matrix(-0.1284,0,0,0.1284,-230.1935,731.2796)"><stop
         offset="0"
         style="stop-color:#FFFFFF"
         id="stop1378" /><stop
         offset="1"
         style="stop-color:#808184"
         id="stop1380" /></linearGradient><linearGradient
       id="SVGID_6_"
       gradientUnits="userSpaceOnUse"
       x1="-11517.447"
       y1="-900.61719"
       x2="-11256.677"
       y2="-900.61719"
       gradientTransform="matrix(0.0642,0,0,0.0642,565.5225,503.5067)"><stop
         offset="0"
         style="stop-color:#BBBDBF"
         id="stop1385" /><stop
         offset="0.0266"
         style="stop-color:#C3C5C7"
         id="stop1387" /><stop
         offset="0.1154"
         style="stop-color:#D9DADB"
         id="stop1389" /><stop
         offset="0.2196"
         style="stop-color:#EAEBEB"
         id="stop1391" /><stop
         offset="0.3478"
         style="stop-color:#F6F6F7"
         id="stop1393" /><stop
         offset="0.5258"
         style="stop-color:#FDFDFD"
         id="stop1395" /><stop
         offset="1"
         style="stop-color:#FFFFFF"
         id="stop1397" /></linearGradient><linearGradient
       id="SVGID_7_"
       gradientUnits="userSpaceOnUse"
       x1="-11522.901"
       y1="-996.94922"
       x2="-11355.658"
       y2="-996.94922"
       gradientTransform="matrix(0.0642,0,0,0.0642,565.5225,503.5067)"><stop
         offset="0"
         style="stop-color:#BBBDBF"
         id="stop1402" /><stop
         offset="0.097"
         style="stop-color:#A2A3A5"
         id="stop1404" /><stop
         offset="0.2275"
         style="stop-color:#87888A"
         id="stop1406" /><stop
         offset="0.3698"
         style="stop-color:#727375"
         id="stop1408" /><stop
         offset="0.528"
         style="stop-color:#636466"
         id="stop1410" /><stop
         offset="0.7145"
         style="stop-color:#5B5C5E"
         id="stop1412" /><stop
         offset="1"
         style="stop-color:#58595B"
         id="stop1414" /></linearGradient><linearGradient
       id="SVGID_8_"
       gradientUnits="userSpaceOnUse"
       x1="-1746.1846"
       y1="-2227.3623"
       x2="-1746.1846"
       y2="-2335.908"
       gradientTransform="matrix(-0.1284,0,0,0.1284,-230.1935,731.2796)"><stop
         offset="0"
         style="stop-color:#FFFFFF"
         id="stop1419" /><stop
         offset="1"
         style="stop-color:#A6A8AB"
         id="stop1421" /></linearGradient><radialGradient
       id="SVGID_9_"
       cx="-11724.91"
       cy="-3164.0283"
       r="3767.4099"
       gradientTransform="matrix(0.0642,0,0,0.0642,565.5225,503.5067)"
       gradientUnits="userSpaceOnUse"><stop
         offset="0"
         style="stop-color:#E3EAED"
         id="stop1426" /><stop
         offset="0.1822"
         style="stop-color:#EEF2F4"
         id="stop1428" /><stop
         offset="0.3876"
         style="stop-color:#FFFFFF"
         id="stop1430" /><stop
         offset="0.4578"
         style="stop-color:#FBFCFC"
         id="stop1432" /><stop
         offset="0.5241"
         style="stop-color:#F0F1F4"
         id="stop1434" /><stop
         offset="0.5889"
         style="stop-color:#DDE0E5"
         id="stop1436" /><stop
         offset="0.6527"
         style="stop-color:#C2C8D1"
         id="stop1438" /><stop
         offset="0.7153"
         style="stop-color:#A0A9B8"
         id="stop1440" /><stop
         offset="0.7416"
         style="stop-color:#8F9AAB"
         id="stop1442" /><stop
         offset="0.7775"
         style="stop-color:#A7B0BE"
         id="stop1444" /><stop
         offset="0.8504"
         style="stop-color:#D1D7E0"
         id="stop1446" /><stop
         offset="0.8876"
         style="stop-color:#E2E6ED"
         id="stop1448" /><stop
         offset="0.9038"
         style="stop-color:#D9DEE6"
         id="stop1450" /><stop
         offset="0.9303"
         style="stop-color:#C1C9D3"
         id="stop1452" /><stop
         offset="0.9636"
         style="stop-color:#99A6B5"
         id="stop1454" /><stop
         offset="1"
         style="stop-color:#667A8D"
         id="stop1456" /></radialGradient><linearGradient
       id="SVGID_10_"
       gradientUnits="userSpaceOnUse"
       x1="-10794.563"
       y1="-1328.8193"
       x2="-10404.008"
       y2="-1328.8193"
       gradientTransform="matrix(0.0642,0,0,0.0642,565.5225,503.5067)"><stop
         offset="0"
         style="stop-color:#A6A8AB"
         id="stop1473" /><stop
         offset="0.0809"
         style="stop-color:#C1C2C4"
         id="stop1475" /><stop
         offset="0.1751"
         style="stop-color:#D7D8DA"
         id="stop1477" /><stop
         offset="0.2841"
         style="stop-color:#E9EAEA"
         id="stop1479" /><stop
         offset="0.4154"
         style="stop-color:#F6F6F6"
         id="stop1481" /><stop
         offset="0.5913"
         style="stop-color:#FDFDFD"
         id="stop1483" /><stop
         offset="1"
         style="stop-color:#FFFFFF"
         id="stop1485" /></linearGradient><linearGradient
       id="SVGID_11_"
       gradientUnits="userSpaceOnUse"
       x1="-10794.562"
       y1="-1496.7773"
       x2="-10527.434"
       y2="-1496.7773"
       gradientTransform="matrix(0.0642,0,0,0.0642,565.5225,503.5067)"><stop
         offset="0"
         style="stop-color:#A6A8AB"
         id="stop1490" /><stop
         offset="0.0491"
         style="stop-color:#9FA1A4"
         id="stop1492" /><stop
         offset="0.3076"
         style="stop-color:#808284"
         id="stop1494" /><stop
         offset="0.5576"
         style="stop-color:#6A6B6D"
         id="stop1496" /><stop
         offset="0.7934"
         style="stop-color:#5D5E60"
         id="stop1498" /><stop
         offset="1"
         style="stop-color:#58595B"
         id="stop1500" /></linearGradient><linearGradient
       id="SVGID_12_"
       gradientUnits="userSpaceOnUse"
       x1="-9797.876"
       y1="-1497.3633"
       x2="-9530.7344"
       y2="-1497.3633"
       gradientTransform="matrix(0.0642,0,0,0.0642,565.5225,503.5229)"><stop
         offset="0"
         style="stop-color:#808184"
         id="stop1507" /><stop
         offset="0.1606"
         style="stop-color:#8E8E91"
         id="stop1509" /><stop
         offset="0.4615"
         style="stop-color:#B1B2B4"
         id="stop1511" /><stop
         offset="0.8674"
         style="stop-color:#EBEBEB"
         id="stop1513" /><stop
         offset="1"
         style="stop-color:#FFFFFF"
         id="stop1515" /></linearGradient><linearGradient
       id="SVGID_13_"
       gradientUnits="userSpaceOnUse"
       x1="-9682.1855"
       y1="-1468.084"
       x2="-9178.9404"
       y2="-1468.084"
       gradientTransform="matrix(0.0642,0,0,0.0642,565.5225,503.5067)"><stop
         offset="0"
         style="stop-color:#FFFFFF"
         id="stop1568" /><stop
         offset="0.2088"
         style="stop-color:#FDFDFD"
         id="stop1570" /><stop
         offset="0.3164"
         style="stop-color:#F5F5F6"
         id="stop1572" /><stop
         offset="0.4009"
         style="stop-color:#E8E8E9"
         id="stop1574" /><stop
         offset="0.4729"
         style="stop-color:#D5D6D8"
         id="stop1576" /><stop
         offset="0.5169"
         style="stop-color:#C5C7C9"
         id="stop1578" /><stop
         offset="0.558"
         style="stop-color:#DADBDC"
         id="stop1580" /><stop
         offset="0.608"
         style="stop-color:#EBEBEC"
         id="stop1582" /><stop
         offset="0.6703"
         style="stop-color:#F6F7F7"
         id="stop1584" /><stop
         offset="0.7576"
         style="stop-color:#FDFDFD"
         id="stop1586" /><stop
         offset="1"
         style="stop-color:#FFFFFF"
         id="stop1588" /></linearGradient><linearGradient
       id="SVGID_14_"
       gradientUnits="userSpaceOnUse"
       x1="-9922.7168"
       y1="-1141.5273"
       x2="-9321.9043"
       y2="-1141.5273"
       gradientTransform="matrix(0.0642,0,0,0.0642,565.5225,503.5067)"><stop
         offset="0.0112"
         style="stop-color:#C5C7C9"
         id="stop1597" /><stop
         offset="0.1281"
         style="stop-color:#C2C4C6"
         id="stop1599" /><stop
         offset="0.2191"
         style="stop-color:#B8BABC"
         id="stop1601" /><stop
         offset="0.3015"
         style="stop-color:#A8AAAC"
         id="stop1603" /><stop
         offset="0.3787"
         style="stop-color:#919294"
         id="stop1605" /><stop
         offset="0.4516"
         style="stop-color:#737476"
         id="stop1607" /><stop
         offset="0.5056"
         style="stop-color:#58595B"
         id="stop1609" /><stop
         offset="0.6695"
         style="stop-color:#9A9A9B"
         id="stop1611" /><stop
         offset="0.8236"
         style="stop-color:#D0D1D1"
         id="stop1613" /><stop
         offset="0.9379"
         style="stop-color:#F2F2F2"
         id="stop1615" /><stop
         offset="1"
         style="stop-color:#FFFFFF"
         id="stop1617" /></linearGradient><linearGradient
       gradientTransform="matrix(0.0642,0,0,0.0642,565.5342,503.5102)"
       y2="-2324.0312"
       x2="-10032.596"
       y1="-2324.0312"
       x1="-10287.981"
       gradientUnits="userSpaceOnUse"
       id="SVGID_15_"><stop
         id="stop1624"
         style="stop-color:#808184"
         offset="0" /><stop
         id="stop1626"
         style="stop-color:#FFFFFF"
         offset="1" /></linearGradient><linearGradient
       gradientTransform="matrix(0.1284,0,0,0.1284,739.7716,731.2684)"
       y2="-2828.2937"
       x2="-6364.4399"
       y1="-3148.2368"
       x1="-6364.4399"
       gradientUnits="userSpaceOnUse"
       id="SVGID_16_"><stop
         id="stop1659"
         style="stop-color:#58595B"
         offset="0" /><stop
         id="stop1661"
         style="stop-color:#616163"
         offset="0.0558" /><stop
         id="stop1663"
         style="stop-color:#78797A"
         offset="0.1451" /><stop
         id="stop1665"
         style="stop-color:#9E9EA0"
         offset="0.2567" /><stop
         id="stop1667"
         style="stop-color:#D2D2D3"
         offset="0.3849" /><stop
         id="stop1669"
         style="stop-color:#FFFFFF"
         offset="0.4831" /><stop
         id="stop1671"
         style="stop-color:#C9C9CA"
         offset="0.7142" /><stop
         id="stop1673"
         style="stop-color:#808184"
         offset="1" /></linearGradient><radialGradient
       gradientUnits="userSpaceOnUse"
       gradientTransform="matrix(0.1284,0,0,0.1284,714.5602,725.1019)"
       fy="-2959.9065"
       fx="-6553.1743"
       r="950.95752"
       cy="-3014.6738"
       cx="-6514.8369"
       id="SVGID_1_"><stop
         id="stop1302"
         style="stop-color:#F9D4E4"
         offset="0" /><stop
         id="stop1304"
         style="stop-color:#F9CFDF"
         offset="0.0896" /><stop
         id="stop1306"
         style="stop-color:#F8C2D1"
         offset="0.194" /><stop
         id="stop1308"
         style="stop-color:#F6ABBA"
         offset="0.3058" /><stop
         id="stop1310"
         style="stop-color:#F48C99"
         offset="0.4228" /><stop
         id="stop1312"
         style="stop-color:#F1646F"
         offset="0.544" /><stop
         id="stop1314"
         style="stop-color:#EE333C"
         offset="0.6667" /><stop
         id="stop1316"
         style="stop-color:#EC1C24"
         offset="0.7191" /><stop
         id="stop1318"
         style="stop-color:#CD181F"
         offset="1" /></radialGradient></defs><sodipodi:namedview
     pagecolor="#ffffff"
     bordercolor="#666666"
     borderopacity="1"
     objecttolerance="10"
     gridtolerance="10"
     guidetolerance="10"
     inkscape:pageopacity="0"
     inkscape:pageshadow="2"
     inkscape:window-width="1366"
     inkscape:window-height="705"
     id="namedview1699"
     showgrid="false"
     inkscape:zoom="0.602"
     inkscape:cx="463.75605"
     inkscape:cy="-1.4629071"
     inkscape:window-x="-8"
     inkscape:window-y="-8"
     inkscape:window-maximized="1"
     inkscape:current-layer="Layer_1" /><path
     style="fill:#000000;fill-opacity:1"
     d="M 106.13867 0 C 47.518672 0 0 47.555125 0 106.20312 C -9.4739031e-015 164.84913 47.518672 212.39648 106.13867 212.39648 C 164.74867 212.39648 212.27734 164.84913 212.27734 106.20312 C 212.27734 47.555125 164.74867 0 106.13867 0 z M 106.13867 4.2519531 C 162.40667 4.2519531 208.03125 49.89813 208.03125 106.20312 C 208.03125 162.50713 162.40667 208.14844 106.13867 208.14844 C 49.866674 208.14844 4.2460938 162.50814 4.2460938 106.20312 C 4.2460937 49.89713 49.866674 4.2519531 106.13867 4.2519531 z M 106.14062 6.3203125 C 105.25763 6.3203125 104.50164 6.8551406 104.18164 7.6191406 L 99.806641 21.476562 C 55.870641 24.721563 21.224609 61.41113 21.224609 106.20312 C 21.224609 119.41812 24.245953 131.9408 29.626953 143.0918 L 19.814453 153.81445 C 19.329453 154.47245 19.2575 155.38858 19.6875 156.14258 C 20.1265 156.90758 20.969109 157.2915 21.787109 157.1875 L 35.96875 154.05273 C 51.25775 176.45673 76.978674 191.1582 106.13867 191.1582 C 135.29767 191.1582 161.01555 176.44797 176.31055 154.04297 L 190.50586 157.18945 C 191.32386 157.28145 192.15289 156.89672 192.58789 156.13672 C 193.02689 155.37772 192.93731 154.45192 192.44531 153.79492 L 182.64844 143.0918 C 188.02844 131.9308 191.04688 119.42008 191.04688 106.20508 C 191.04688 61.413076 156.40584 24.721563 112.46484 21.476562 L 108.08008 7.6015625 C 107.76008 6.8465625 107.00962 6.3203125 106.14062 6.3203125 z M 106.13867 8.2910156 C 106.43167 8.2910156 106.62392 8.5842656 106.66992 8.8222656 L 115.73047 38.699219 L 115.7207 38.720703 C 113.1257 40.656703 111.44531 43.754234 111.44531 47.240234 C 111.44531 50.718234 113.12212 53.812141 115.70312 55.744141 L 115.66602 55.740234 C 119.54602 58.645234 122.05469 63.280953 122.05469 68.501953 L 122.05469 78.496094 L 160.64062 56.210938 L 164.88867 63.568359 L 122.05469 88.308594 L 122.05469 96.884766 L 129.49414 101.17578 L 172.32031 76.447266 L 176.56641 83.814453 L 137.99805 106.0918 L 146.64648 111.08984 C 146.64252 111.08742 146.63867 111.08008 146.63867 111.08008 L 146.68359 111.10938 L 146.6543 111.0957 C 151.15928 113.7134 153.9136 118.19487 154.49023 123.00586 L 154.49414 122.96875 C 154.88214 126.17775 156.71352 129.1753 159.72852 130.9043 C 162.75352 132.6523 166.26809 132.74489 169.24609 131.46289 L 190.5957 154.26953 C 190.8527 154.41653 190.93416 154.73619 190.78516 154.99219 C 190.63816 155.24419 190.2915 155.26855 190.0625 155.18555 L 159.66602 148.10156 L 159.6543 148.08203 C 159.2743 144.86103 157.43397 141.85933 154.41797 140.11133 C 151.40197 138.37033 147.89783 138.27673 144.92383 139.55273 L 144.95117 139.52148 C 140.50117 141.42948 135.22998 141.29259 130.70898 138.68359 L 122.05078 133.68164 L 122.05078 178.25781 L 113.5625 178.25781 L 113.5625 128.77539 L 106.13672 124.48828 L 98.703125 128.78125 L 98.703125 178.25781 L 90.205078 178.25781 L 90.205078 133.69531 L 81.552734 138.69141 C 77.031734 141.29541 71.773314 141.43739 67.320312 139.52539 L 67.349609 139.55273 C 64.379609 138.28973 60.867422 138.37914 57.857422 140.11914 C 54.836422 141.86114 52.998047 144.86908 52.623047 148.08008 L 22.210938 155.18359 C 21.954937 155.33159 21.633516 155.24419 21.478516 154.99219 C 21.341516 154.73619 21.491688 154.42553 21.679688 154.26953 L 43.003906 131.4707 L 43.03125 131.4707 C 46.00625 132.7517 49.529781 132.65916 52.550781 130.91016 C 55.562781 129.17316 57.391391 126.18175 57.775391 122.96875 L 57.794922 123.01562 C 58.362922 118.19664 61.118531 113.69684 65.644531 111.08984 L 65.59375 111.11523 L 74.296875 106.0918 L 35.710938 83.800781 L 39.957031 76.447266 L 82.78125 101.18555 L 90.207031 96.892578 L 90.207031 88.308594 L 47.390625 63.570312 L 51.636719 56.203125 L 90.208984 78.488281 L 90.208984 68.503906 C 90.208984 63.282906 92.720562 58.645234 96.601562 55.740234 L 96.564453 55.744141 C 99.145453 53.813141 100.82617 50.721187 100.82617 47.242188 C 100.82617 43.756188 99.142016 40.658656 96.541016 38.722656 L 105.60742 8.8222656 C 105.60742 8.5292656 105.84067 8.2910156 106.13867 8.2910156 z M 106.14062 61.074219 C 102.03562 61.074219 98.707031 64.396859 98.707031 68.505859 L 98.707031 83.396484 L 106.14062 87.697266 L 113.56641 83.404297 L 113.56641 68.505859 C 113.56641 64.396859 110.24162 61.074219 106.14062 61.074219 z M 106.13867 97.509766 L 98.707031 101.80273 L 98.707031 110.38672 L 106.13867 114.67773 L 113.56641 110.38672 L 113.56641 101.80273 L 106.13867 97.509766 z M 82.78125 110.99805 L 69.890625 118.44727 C 66.335625 120.49727 65.119922 125.04666 67.169922 128.59766 C 69.219922 132.15766 73.766359 133.37522 77.318359 131.32422 L 90.208984 123.87695 L 90.208984 115.28125 L 82.78125 110.99805 z M 129.49414 110.99805 L 122.05469 115.30078 L 122.05469 123.87109 L 134.94922 131.32422 C 138.50922 133.37422 143.05237 132.15766 145.10938 128.59766 C 147.15938 125.04766 145.94286 120.49827 142.38086 118.44727 L 129.49414 110.99805 z M 81.570312 138.68359 C 81.565313 138.69259 81.565641 138.69336 81.556641 138.69336 L 81.519531 138.71289 L 81.570312 138.68359 z "
     transform="translate(-194,289.802)"
     id="path1321" /><polygon
     points="636.063,410.804 636.063,486.089 672.641,486.089 672.641,306.62 636.084,306.62 636.084,378.119 604.196,378.119 604.196,306.62 567.458,306.62 567.458,486.089 604.205,486.089 604.205,410.804 "
     id="polygon1682"
     style="fill:#000000" /><polygon
     points="337.394,486.089 359.79,486.089 379.883,371.994 379.883,486.089 413.656,486.089 413.656,306.62 363.6,306.62 348.802,392.905 334.023,306.62 283.986,306.62 283.986,486.089 317.63,486.089 317.63,371.994 "
     id="polygon1684"
     style="fill:#000000" /><polygon
     points="114.548,427.199 114.548,486.089 75.519,486.089 75.519,427.199 36.091,306.62 72.638,306.62 95.024,386.801 117.42,306.62 153.956,306.62 "
     id="polygon1686"
     style="fill:#000000" /><path
     d="m 231.584,306.62 h -48.631 l -31.95,179.469 h 36.317 l 6.133,-42.696 h 27.452 l 6.133,42.696 h 36.536 z m -24.4,40.567 9.084,63.6 H 198.09 Z"
     id="path1688"
     inkscape:connector-curvature="0"
     style="fill:#000000" /><path
     d="m 514.828,306.62 h -48.631 l -31.959,179.469 h 36.336 l 6.123,-42.696 h 27.462 l 6.122,42.696 h 36.535 z m -24.39,40.567 9.076,63.6 h -18.172 z"
     id="path1690"
     inkscape:connector-curvature="0"
     style="fill:#000000" /><path
     d="M 774.013,306.62 H 725.37 l -31.95,179.469 h 36.336 l 6.123,-42.696 h 27.464 l 6.122,42.696 H 806 Z m -24.392,40.567 9.074,63.6 h -18.169 z"
     id="path1692"
     inkscape:connector-curvature="0"
     style="fill:#000000" /></svg>