<?xml version="1.0" encoding="utf-8"?>
<!-- Generator: Adobe Illustrator 16.0.0, SVG Export Plug-In . SVG Version: 6.00 Build 0)  -->
<!DOCTYPE svg PUBLIC "-//W3C//DTD SVG 1.1//EN" "http://www.w3.org/Graphics/SVG/1.1/DTD/svg11.dtd">
<svg version="1.1" id="Layer_1" xmlns="http://www.w3.org/2000/svg" xmlns:xlink="http://www.w3.org/1999/xlink" x="0px" y="0px"
	 width="1000px" height="212.396px" viewBox="-194 289.802 1000 212.396" enable-background="new -194 289.802 1000 212.396"
	 xml:space="preserve">
<g>
	<g>
		<g>
			
				<radialGradient id="SVGID_1_" cx="-6514.8369" cy="-3014.6738" r="950.9575" fx="-6553.1743" fy="-2959.9065" gradientTransform="matrix(0.1284 0 0 0.1284 714.5602 725.1019)" gradientUnits="userSpaceOnUse">
				<stop  offset="0" style="stop-color:#F9D4E4"/>
				<stop  offset="0.0896" style="stop-color:#F9CFDF"/>
				<stop  offset="0.194" style="stop-color:#F8C2D1"/>
				<stop  offset="0.3058" style="stop-color:#F6ABBA"/>
				<stop  offset="0.4228" style="stop-color:#F48C99"/>
				<stop  offset="0.544" style="stop-color:#F1646F"/>
				<stop  offset="0.6667" style="stop-color:#EE333C"/>
				<stop  offset="0.7191" style="stop-color:#EC1C24"/>
				<stop  offset="1" style="stop-color:#CD181F"/>
			</radialGradient>
			<path fill="url(#SVGID_1_)" d="M-194,396.006c0-58.648,47.519-106.204,106.139-106.204c58.61,0,106.138,47.556,106.138,106.204
				c0,58.646-47.528,106.192-106.138,106.192C-146.481,502.198-194,454.652-194,396.006z"/>
		</g>
		<path fill="#231F20" d="M-87.861,500.194c56.268,0,101.892-45.647,101.892-101.951c0-56.301-45.624-101.952-101.892-101.952
			c-56.272,0-101.892,45.651-101.892,101.952C-189.753,454.547-144.133,500.194-87.861,500.194z M-1.413,448.182
			c-0.435,0.76-1.264,1.144-2.082,1.052l-14.195-3.147c-15.295,22.404-41.012,37.111-70.171,37.111
			c-29.16,0-54.881-14.707-70.17-37.103l-14.182,3.13c-0.818,0.105-1.661-0.279-2.1-1.043c-0.43-0.754-0.357-1.666,0.128-2.324
			l9.811-10.728c-5.381-11.151-8.401-23.667-8.401-36.887c0-44.792,34.646-81.479,78.582-84.728l4.375-13.856
			c0.32-0.76,1.075-1.3,1.958-1.3c0.869,0,1.621,0.531,1.941,1.281l4.383,13.875c43.941,3.24,78.582,39.936,78.582,84.728
			c0,13.22-3.017,25.731-8.397,36.887l9.797,10.709C-1.062,446.498-0.974,447.422-1.413,448.182z"/>
		<path fill="#231F20" d="M-3.404,446.306l-21.349-22.802c-2.978,1.28-6.493,1.188-9.518-0.555
			c-3.015-1.738-4.846-4.736-5.234-7.945l-0.005,0.037c-0.577-4.809-3.333-9.299-7.843-11.912l-8.648-5.002l38.567-22.275
			l-4.246-7.367l-42.825,24.738l-7.44-4.297v-8.571l42.833-24.744l-4.248-7.358l-38.586,22.291v-9.995
			c0-5.23-2.508-9.866-6.388-12.771l0.037,0.014c-2.581-1.94-4.257-5.029-4.257-8.507c0-3.492,1.68-6.585,4.275-8.525l0.01-0.018
			l-9.062-29.882c-0.046-0.233-0.238-0.531-0.531-0.531c-0.298,0-0.531,0.238-0.531,0.531l-9.066,29.9
			c2.601,1.94,4.285,5.033,4.285,8.525c0,3.478-1.68,6.566-4.261,8.507l0.037-0.014c-3.881,2.905-6.393,7.542-6.393,12.771v9.977
			l-38.572-22.277l-4.247,7.363l42.818,24.735v8.594l-7.427,4.283l-42.823-24.738l-4.247,7.357l38.586,22.285l-8.704,5.026
			l0.051-0.024c-4.526,2.613-7.281,7.107-7.849,11.922l-0.019-0.037c-0.384,3.203-2.214,6.201-5.226,7.939
			c-3.021,1.744-6.543,1.836-9.518,0.555l-0.028,0.009l-21.324,22.789c-0.188,0.155-0.339,0.466-0.202,0.722
			c0.155,0.257,0.476,0.345,0.732,0.197l30.413-7.097c0.375-3.214,2.214-6.224,5.235-7.968c3.01-1.743,6.521-1.834,9.491-0.563
			l-0.028-0.027c4.453,1.908,9.711,1.766,14.232-0.842l8.653-4.998v44.563h8.498v-49.467l7.432-4.298l7.427,4.288v49.477h8.488
			v-44.571l8.658,4.997c4.521,2.613,9.792,2.755,14.242,0.842l-0.028,0.027c2.974-1.271,6.479-1.18,9.495,0.568
			c3.016,1.738,4.856,4.75,5.236,7.962l0.012,0.022l30.396,7.084c0.229,0.088,0.576,0.06,0.723-0.197
			C-3.066,446.771-3.147,446.451-3.404,446.306z M-87.861,406.713l-7.432-4.292v-8.585l7.432-4.288l7.427,4.288v8.585
			L-87.861,406.713z M-95.292,360.549c0-4.109,3.327-7.44,7.432-7.44c4.101,0,7.427,3.331,7.427,7.44v14.9l-7.427,4.283
			l-7.432-4.296V360.549z M-116.681,423.361c-3.552,2.049-8.1,0.832-10.15-2.719c-2.05-3.561-0.833-8.104,2.722-10.159l12.891-7.449
			l7.427,4.292v8.594L-116.681,423.361z M-48.89,420.643c-2.057,3.551-6.6,4.768-10.16,2.719l-12.896-7.449v-8.572l7.44-4.297
			l12.887,7.44C-48.057,412.538-46.84,417.082-48.89,420.643z M-47.362,403.125c0,0,0.005,0,0.01,0.004l0.036,0.024L-47.362,403.125
			z M-63.24,430.747l-0.047-0.028l0,0L-63.24,430.747z M-112.43,430.729c-0.005,0-0.005,0-0.014,0l-0.037,0.027L-112.43,430.729z"/>
		
			<radialGradient id="SVGID_2_" cx="-11724.9141" cy="-3164.0698" r="3767.3872" gradientTransform="matrix(0.0642 0 0 0.0642 565.5225 503.5067)" gradientUnits="userSpaceOnUse">
			<stop  offset="0" style="stop-color:#E3EAED"/>
			<stop  offset="0.1822" style="stop-color:#EEF2F4"/>
			<stop  offset="0.3876" style="stop-color:#FFFFFF"/>
			<stop  offset="0.4578" style="stop-color:#FBFCFC"/>
			<stop  offset="0.5241" style="stop-color:#F0F1F4"/>
			<stop  offset="0.5889" style="stop-color:#DDE0E5"/>
			<stop  offset="0.6527" style="stop-color:#C2C8D1"/>
			<stop  offset="0.7153" style="stop-color:#A0A9B8"/>
			<stop  offset="0.7416" style="stop-color:#8F9AAB"/>
			<stop  offset="0.7775" style="stop-color:#A7B0BE"/>
			<stop  offset="0.8504" style="stop-color:#D1D7E0"/>
			<stop  offset="0.8876" style="stop-color:#E2E6ED"/>
			<stop  offset="0.9038" style="stop-color:#D9DEE6"/>
			<stop  offset="0.9303" style="stop-color:#C1C9D3"/>
			<stop  offset="0.9636" style="stop-color:#99A6B5"/>
			<stop  offset="1" style="stop-color:#667A8D"/>
		</radialGradient>
		<path fill="url(#SVGID_2_)" d="M-87.861,497.951c56.268,0,101.892-45.641,101.892-101.945
			c0-56.305-45.624-101.953-101.892-101.953c-56.272,0-101.892,45.647-101.892,101.953
			C-189.753,452.311-144.133,497.951-87.861,497.951z M-1.413,445.939c-0.435,0.76-1.264,1.145-2.082,1.053l-14.195-3.148
			c-15.295,22.405-41.012,37.117-70.171,37.117c-29.16,0-54.881-14.703-70.17-37.107l-14.182,3.135
			c-0.818,0.104-1.661-0.28-2.1-1.045c-0.43-0.754-0.357-1.67,0.128-2.328l9.811-10.723c-5.381-11.151-8.401-23.672-8.401-36.887
			c0-44.792,34.646-81.483,78.582-84.728l4.375-13.856c0.32-0.764,1.075-1.299,1.958-1.299c0.869,0,1.621,0.526,1.941,1.281
			l4.383,13.875c43.941,3.245,78.582,39.936,78.582,84.728c0,13.215-3.017,25.726-8.397,36.887l9.797,10.703
			C-1.062,444.254-0.974,445.18-1.413,445.939z"/>
		
			<linearGradient id="SVGID_3_" gradientUnits="userSpaceOnUse" x1="-7016.874" y1="-3182.3159" x2="-5908.6455" y2="-2074.0874" gradientTransform="matrix(0.1284 0 0 0.1284 739.7501 731.2684)">
			<stop  offset="0" style="stop-color:#FFFFFF"/>
			<stop  offset="1" style="stop-color:#58595B"/>
		</linearGradient>
		<path fill="url(#SVGID_3_)" d="M-87.865,497.961c56.272,0,101.896-45.646,101.896-101.951
			c0-56.301-45.624-101.952-101.896-101.952c-56.273,0-101.897,45.651-101.897,101.952
			C-189.762,452.314-144.138,497.961-87.865,497.961z M-189.25,396.027c0-55.933,45.482-101.438,101.385-101.438
			c55.901,0,101.383,45.505,101.383,101.438c0,55.936-45.482,101.44-101.383,101.44C-143.767,497.467-189.25,451.963-189.25,396.027
			z"/>
		
			<linearGradient id="SVGID_4_" gradientUnits="userSpaceOnUse" x1="-6015.5024" y1="-2117.1743" x2="-6854.3003" y2="-2955.9722" gradientTransform="matrix(0.1284 0 0 0.1284 739.7501 731.2684)">
			<stop  offset="0" style="stop-color:#FFFFFF"/>
			<stop  offset="1" style="stop-color:#58595B"/>
		</linearGradient>
		<path fill="url(#SVGID_4_)" d="M-1.181,443.258l-9.573-10.457c5.51-11.536,8.312-23.91,8.312-36.791
			c0-21.724-8.146-42.426-22.955-58.296c-14.644-15.705-34.43-25.241-55.756-26.907l-4.273-13.55l-0.008-0.032l-0.014-0.018
			c-0.417-0.971-1.359-1.593-2.416-1.593c-1.063,0-2.014,0.641-2.421,1.611c-0.018,0.046-3.643,11.514-4.293,13.582
			c-21.325,1.666-41.112,11.203-55.755,26.907c-14.809,15.879-22.954,36.572-22.954,58.296c0,12.88,2.801,25.254,8.311,36.794
			l-9.583,10.471l-0.018,0.019l-0.014,0.028c-0.627,0.842-0.691,1.977-0.165,2.883c0.531,0.924,1.552,1.428,2.604,1.295
			c0.045-0.004,11.769-2.6,13.893-3.07c15.979,23.205,42.265,37.048,70.395,37.048c28.133,0,54.418-13.843,70.394-37.054
			l13.865,3.076l0.027,0.004h0.028c1.044,0.119,2.059-0.393,2.582-1.299C-0.439,445.285-0.513,444.146-1.181,443.258z
			 M-1.417,445.948c-0.431,0.76-1.264,1.144-2.078,1.052l-14.195-3.146c-15.295,22.404-41.012,37.111-70.175,37.111
			c-29.156,0-54.877-14.707-70.167-37.107l-14.186,3.135c-0.814,0.104-1.657-0.284-2.096-1.044
			c-0.439-0.754-0.357-1.666,0.128-2.323l9.811-10.729c-5.381-11.155-8.401-23.667-8.401-36.886
			c0-44.792,34.642-81.479,78.582-84.728l4.375-13.857c0.32-0.759,1.075-1.299,1.955-1.299c0.873,0,1.625,0.531,1.945,1.281
			l4.383,13.875c43.941,3.24,78.582,39.936,78.582,84.728c0,13.219-3.017,25.731-8.397,36.886l9.792,10.709
			C-1.062,444.264-0.979,445.189-1.417,445.948z"/>
		
			<linearGradient id="SVGID_5_" gradientUnits="userSpaceOnUse" x1="-1746.1846" y1="-2227.3623" x2="-1746.1846" y2="-2335.908" gradientTransform="matrix(-0.1284 0 0 0.1284 -230.1935 731.2796)">
			<stop  offset="0" style="stop-color:#FFFFFF"/>
			<stop  offset="1" style="stop-color:#808184"/>
		</linearGradient>
		<path fill="url(#SVGID_5_)" d="M-10.754,432.853l-0.648,0.091l9.729,10.534c0,0,0.553,0.761,0.553,1.61h0.554
			c0.032-0.988-0.887-2.142-0.906-2.159C-1.871,442.479-10.754,432.853-10.754,432.853z"/>
		
			<linearGradient id="SVGID_6_" gradientUnits="userSpaceOnUse" x1="-11517.4473" y1="-900.6172" x2="-11256.6768" y2="-900.6172" gradientTransform="matrix(0.0642 0 0 0.0642 565.5225 503.5067)">
			<stop  offset="0" style="stop-color:#BBBDBF"/>
			<stop  offset="0.0266" style="stop-color:#C3C5C7"/>
			<stop  offset="0.1154" style="stop-color:#D9DADB"/>
			<stop  offset="0.2196" style="stop-color:#EAEBEB"/>
			<stop  offset="0.3478" style="stop-color:#F6F6F7"/>
			<stop  offset="0.5258" style="stop-color:#FDFDFD"/>
			<stop  offset="1" style="stop-color:#FFFFFF"/>
		</linearGradient>
		<path fill="url(#SVGID_6_)" d="M-174.743,446.205c0.521,0.924,1.547,1.428,2.604,1.295c0.041-0.004,11.765-2.6,13.893-3.07
			l0.225-0.576l-14.187,3.139c-0.814,0.104-1.657-0.284-2.096-1.044L-174.743,446.205z"/>
		
			<linearGradient id="SVGID_7_" gradientUnits="userSpaceOnUse" x1="-11522.9014" y1="-996.9492" x2="-11355.6582" y2="-996.9492" gradientTransform="matrix(0.0642 0 0 0.0642 565.5225 503.5067)">
			<stop  offset="0" style="stop-color:#BBBDBF"/>
			<stop  offset="0.097" style="stop-color:#A2A3A5"/>
			<stop  offset="0.2275" style="stop-color:#87888A"/>
			<stop  offset="0.3698" style="stop-color:#727375"/>
			<stop  offset="0.528" style="stop-color:#636466"/>
			<stop  offset="0.7145" style="stop-color:#5B5C5E"/>
			<stop  offset="1" style="stop-color:#58595B"/>
		</linearGradient>
		<path fill="url(#SVGID_7_)" d="M-174.304,445.948c-0.435-0.754-0.357-1.67,0.128-2.329l9.811-10.723l-0.604-0.096l-9.583,10.475
			l-0.018,0.019l-0.018,0.02c-0.623,0.851-0.688,1.977-0.156,2.892L-174.304,445.948z"/>
		
			<linearGradient id="SVGID_8_" gradientUnits="userSpaceOnUse" x1="-1746.1846" y1="-2227.3623" x2="-1746.1846" y2="-2335.908" gradientTransform="matrix(-0.1284 0 0 0.1284 -230.1935 731.2796)">
			<stop  offset="0" style="stop-color:#FFFFFF"/>
			<stop  offset="1" style="stop-color:#A6A8AB"/>
		</linearGradient>
		<path fill="url(#SVGID_8_)" d="M-10.754,432.853l-0.648,0.091l9.729,10.534c0,0,0.553,0.761,0.553,1.61h0.554
			c0.032-0.988-0.887-2.142-0.906-2.159C-1.871,442.479-10.754,432.853-10.754,432.853z"/>
		
			<radialGradient id="SVGID_9_" cx="-11724.9102" cy="-3164.0283" r="3767.4099" gradientTransform="matrix(0.0642 0 0 0.0642 565.5225 503.5067)" gradientUnits="userSpaceOnUse">
			<stop  offset="0" style="stop-color:#E3EAED"/>
			<stop  offset="0.1822" style="stop-color:#EEF2F4"/>
			<stop  offset="0.3876" style="stop-color:#FFFFFF"/>
			<stop  offset="0.4578" style="stop-color:#FBFCFC"/>
			<stop  offset="0.5241" style="stop-color:#F0F1F4"/>
			<stop  offset="0.5889" style="stop-color:#DDE0E5"/>
			<stop  offset="0.6527" style="stop-color:#C2C8D1"/>
			<stop  offset="0.7153" style="stop-color:#A0A9B8"/>
			<stop  offset="0.7416" style="stop-color:#8F9AAB"/>
			<stop  offset="0.7775" style="stop-color:#A7B0BE"/>
			<stop  offset="0.8504" style="stop-color:#D1D7E0"/>
			<stop  offset="0.8876" style="stop-color:#E2E6ED"/>
			<stop  offset="0.9038" style="stop-color:#D9DEE6"/>
			<stop  offset="0.9303" style="stop-color:#C1C9D3"/>
			<stop  offset="0.9636" style="stop-color:#99A6B5"/>
			<stop  offset="1" style="stop-color:#667A8D"/>
		</radialGradient>
		<path fill="url(#SVGID_9_)" d="M-3.404,444.072l-21.349-22.808c-2.978,1.282-6.493,1.19-9.518-0.558
			c-3.015-1.729-4.846-4.727-5.234-7.936l-0.005,0.037c-0.577-4.814-3.333-9.299-7.843-11.916l-8.648-4.998l38.567-22.277
			l-4.246-7.367l-42.825,24.729l-7.44-4.292v-8.576l42.833-24.739l-4.248-7.358l-38.586,22.286v-9.995
			c0-5.221-2.508-9.857-6.388-12.762l0.037,0.004c-2.581-1.932-4.257-5.025-4.257-8.503c0-3.486,1.68-6.584,4.275-8.52l0.01-0.022
			l-9.062-29.877c-0.046-0.238-0.238-0.531-0.531-0.531c-0.298,0-0.531,0.238-0.531,0.531l-9.066,29.9
			c2.601,1.936,4.285,5.034,4.285,8.52c0,3.479-1.68,6.572-4.261,8.503l0.037-0.004c-3.881,2.905-6.393,7.541-6.393,12.762v9.986
			l-38.572-22.286l-4.247,7.367l42.818,24.739v8.584l-7.427,4.293l-42.823-24.739l-4.247,7.354l38.586,22.29l-8.704,5.025
			l0.051-0.027c-4.526,2.607-7.281,7.107-7.849,11.926l-0.019-0.047c-0.384,3.213-2.214,6.206-5.226,7.943
			c-3.021,1.749-6.543,1.841-9.518,0.56h-0.028l-21.324,22.798c-0.188,0.156-0.339,0.467-0.202,0.723
			c0.155,0.252,0.476,0.34,0.732,0.192l30.413-7.103c0.375-3.211,2.214-6.219,5.235-7.961c3.01-1.74,6.521-1.831,9.491-0.568
			l-0.028-0.027c4.453,1.912,9.711,1.771,14.232-0.833l8.653-4.997v44.563h8.498v-49.477l7.432-4.293l7.427,4.287v49.482h8.488
			v-44.576l8.658,5.002c4.521,2.609,9.792,2.746,14.242,0.838l-0.028,0.031c2.974-1.276,6.479-1.182,9.495,0.559
			c3.016,1.748,4.856,4.75,5.236,7.971l0.012,0.019l30.396,7.084c0.229,0.083,0.576,0.06,0.723-0.192
			C-3.066,444.539-3.147,444.219-3.404,444.072z M-87.861,404.479l-7.432-4.291v-8.584l7.432-4.293l7.427,4.293v8.584
			L-87.861,404.479z M-95.292,358.307c0-4.109,3.327-7.431,7.432-7.431c4.101,0,7.427,3.322,7.427,7.431v14.9l-7.427,4.292
			l-7.432-4.301V358.307z M-116.681,421.127c-3.552,2.051-8.1,0.833-10.15-2.727c-2.05-3.551-0.833-8.1,2.722-10.15l12.891-7.449
			l7.427,4.283v8.594L-116.681,421.127z M-48.89,418.4c-2.057,3.56-6.6,4.777-10.16,2.727l-12.896-7.454v-8.571l7.44-4.301
			l12.887,7.449C-48.057,410.301-46.84,414.85-48.89,418.4z M-47.362,400.883c0,0,0.005,0.01,0.01,0.01l0.036,0.018L-47.362,400.883
			z M-63.24,428.504l-0.047-0.018l0,0L-63.24,428.504z M-112.43,428.486c-0.005,0.009-0.005,0.009-0.014,0.009l-0.037,0.019
			L-112.43,428.486z"/>
		<polygon fill="#FFFFFF" points="-87.865,405.057 -95.809,400.463 -95.297,400.168 -87.865,404.463 		"/>
		<polygon fill="#FFFFFF" points="-79.925,400.463 -87.865,405.057 -87.865,404.463 -80.438,400.168 		"/>
		<polygon fill="#FFFFFF" points="-79.925,400.545 -79.925,391.374 -80.438,391.667 -80.438,400.242 		"/>
		<polygon fill="#C5C7C9" points="-79.925,391.374 -87.869,386.779 -87.869,387.375 -80.438,391.667 		"/>
		<polygon fill="#58595B" points="-95.809,391.374 -87.869,386.779 -87.869,387.375 -95.297,391.667 		"/>
		<polygon fill="#808184" points="-95.809,400.545 -95.809,391.374 -95.297,391.667 -95.297,400.242 		"/>
		
			<linearGradient id="SVGID_10_" gradientUnits="userSpaceOnUse" x1="-10794.5635" y1="-1328.8193" x2="-10404.0078" y2="-1328.8193" gradientTransform="matrix(0.0642 0 0 0.0642 565.5225 503.5067)">
			<stop  offset="0" style="stop-color:#A6A8AB"/>
			<stop  offset="0.0809" style="stop-color:#C1C2C4"/>
			<stop  offset="0.1751" style="stop-color:#D7D8DA"/>
			<stop  offset="0.2841" style="stop-color:#E9EAEA"/>
			<stop  offset="0.4154" style="stop-color:#F6F6F6"/>
			<stop  offset="0.5913" style="stop-color:#FDFDFD"/>
			<stop  offset="1" style="stop-color:#FFFFFF"/>
		</linearGradient>
		<path fill="url(#SVGID_10_)" d="M-128.387,414.575c-0.028,1.437,0.329,2.851,1.07,4.118c2.188,3.798,7.057,5.107,10.854,2.91
			l13.148-7.588l-0.513-0.292l-12.891,7.44c-3.551,2.051-8.104,0.833-10.158-2.727c-0.705-1.213-1.025-2.554-0.998-3.862H-128.387z"
			/>
		
			<linearGradient id="SVGID_11_" gradientUnits="userSpaceOnUse" x1="-10794.5625" y1="-1496.7773" x2="-10527.4336" y2="-1496.7773" gradientTransform="matrix(0.0642 0 0 0.0642 565.5225 503.5067)">
			<stop  offset="0" style="stop-color:#A6A8AB"/>
			<stop  offset="0.0491" style="stop-color:#9FA1A4"/>
			<stop  offset="0.3076" style="stop-color:#808284"/>
			<stop  offset="0.5576" style="stop-color:#6A6B6D"/>
			<stop  offset="0.7934" style="stop-color:#5D5E60"/>
			<stop  offset="1" style="stop-color:#58595B"/>
		</linearGradient>
		<path fill="url(#SVGID_11_)" d="M-127.875,414.575c0.055-2.513,1.382-4.935,3.716-6.283l12.904-7.445v-0.595l-13.161,7.596
			c-1.835,1.061-3.148,2.773-3.697,4.822c-0.169,0.633-0.26,1.265-0.274,1.905H-127.875z"/>
		<path fill="#FFFFFF" d="M-47.335,414.479c0.032,1.434-0.33,2.851-1.062,4.123c-2.197,3.789-7.065,5.099-10.854,2.91l-13.151-7.587
			l0.512-0.302l12.896,7.444c3.55,2.051,8.1,0.838,10.154-2.722c0.699-1.217,1.024-2.553,0.992-3.867H-47.335z"/>
		
			<linearGradient id="SVGID_12_" gradientUnits="userSpaceOnUse" x1="-9797.876" y1="-1497.3633" x2="-9530.7344" y2="-1497.3633" gradientTransform="matrix(0.0642 0 0 0.0642 565.5225 503.5229)">
			<stop  offset="0" style="stop-color:#808184"/>
			<stop  offset="0.1606" style="stop-color:#8E8E91"/>
			<stop  offset="0.4615" style="stop-color:#B1B2B4"/>
			<stop  offset="0.8674" style="stop-color:#EBEBEB"/>
			<stop  offset="1" style="stop-color:#FFFFFF"/>
		</linearGradient>
		<path fill="url(#SVGID_12_)" d="M-47.848,414.552c-0.045-2.513-1.377-4.938-3.706-6.282l-12.914-7.445v-0.592l13.162,7.597
			c1.839,1.052,3.157,2.769,3.706,4.819c0.165,0.627,0.256,1.267,0.266,1.903H-47.848z"/>
		<polygon fill="#FFFFFF" points="-103.314,414.016 -103.319,404.837 -103.827,405.13 -103.827,413.724 		"/>
		<polygon fill="#C5C7C9" points="-111.254,400.252 -103.319,404.837 -103.827,405.13 -111.254,400.847 		"/>
		<polygon fill="#808184" points="-72.467,467.51 -72.477,422.574 -71.959,423.462 -71.959,468.024 		"/>
		<polygon fill="#58595B" points="-80.448,468.061 -71.959,468.061 -72.467,467.548 -79.935,467.548 		"/>
		<polygon fill="#FFFFFF" points="-80.457,418.556 -80.448,468.024 -79.944,467.51 -79.944,418.263 		"/>
		<polygon fill="#C5C7C9" points="-87.888,413.678 -79.953,418.263 -80.457,418.556 -87.888,414.271 		"/>
		<polygon fill="#58595B" points="-95.815,418.309 -87.865,413.715 -87.865,414.31 -95.311,418.609 		"/>
		<polygon fill="#808184" points="-95.815,467.543 -95.815,418.309 -95.311,418.609 -95.297,468.057 		"/>
		<polygon fill="#58595B" points="-103.786,468.051 -95.274,468.057 -95.795,467.543 -103.273,467.538 		"/>
		<polygon fill="#FFFFFF" points="-103.827,423.472 -103.823,468.015 -103.31,467.502 -103.314,422.584 		"/>
		<path fill="#58595B" d="M-103.777,423.521l-8.653,4.993c-4.521,2.6-9.789,2.736-14.241,0.828l0.032,0.033
			c-2.975-1.273-6.489-1.182-9.5,0.557c-3.021,1.748-4.861,4.75-5.235,7.963l-0.458-0.42c0.504-3.373,2.472-6.271,5.438-7.986
			c3.065-1.762,6.69-1.982,9.957-0.586l-0.032-0.031c4.507,1.936,9.536,1.643,13.783-0.797l9.422-5.437L-103.777,423.521z"/>
		<path fill="#58595B" d="M-172.574,444.74c0.146,0.257,0.472,0.343,0.778,0.238l30.427-7.094l-0.463-0.41l-30.156,6.932
			L-172.574,444.74z"/>
		<path fill="#FFFFFF" d="M-151.021,421.238l-21.361,22.783c-0.183,0.152-0.338,0.473-0.192,0.719l0.586-0.334l21.087-22.569
			L-151.021,421.238z"/>
		<path fill="#FFFFFF" d="M-119.752,395.876l-8.663,4.997c-4.517,2.609-7.266,7.104-7.843,11.918l-0.009-0.047
			c-0.384,3.213-2.224,6.205-5.235,7.944c-3.02,1.739-6.548,1.831-9.519,0.55l0.119,0.599c3.144,1.239,6.727,0.983,9.655-0.71
			c3.02-1.742,5.07-4.854,5.482-8.318l0.014,0.037c0.581-4.878,3.345-9.08,7.592-11.533l9.431-5.436H-119.752z"/>
		<polygon fill="#58595B" points="-64.486,400.22 -72.439,404.814 -71.927,405.111 -64.486,400.809 		"/>
		<polygon fill="#808184" points="-72.417,413.915 -72.417,404.754 -71.904,405.047 -71.904,413.623 		"/>
		<polygon fill="#FFFFFF" points="-33.561,346.692 -72.471,369.17 -71.964,368.278 -33.369,345.997 		"/>
		<polygon fill="#C5C7C9" points="-29.131,353.355 -33.369,345.997 -33.561,346.692 -29.827,353.163 		"/>
		<polygon fill="#58595B" points="-71.94,378.13 -29.107,353.392 -29.809,353.2 -72.453,377.837 		"/>
		<polygon fill="#808184" points="-72.453,386.999 -72.453,377.837 -71.94,378.13 -71.94,386.707 		"/>
		<polygon fill="#FFFFFF" points="-64.523,391.557 -72.471,386.963 -71.959,386.67 -64.514,390.962 		"/>
		<polygon fill="#FFFFFF" points="-21.883,366.938 -64.523,391.557 -64.514,390.962 -21.699,366.229 		"/>
		<polygon fill="#C5C7C9" points="-17.449,373.591 -21.699,366.229 -21.883,366.938 -18.148,373.408 		"/>
		<polygon fill="#58595B" points="-55.993,395.899 -17.426,373.623 -18.126,373.435 -57.018,395.899 		"/>
		
			<linearGradient id="SVGID_13_" gradientUnits="userSpaceOnUse" x1="-9682.1855" y1="-1468.084" x2="-9178.9404" y2="-1468.084" gradientTransform="matrix(0.0642 0 0 0.0642 565.5225 503.5067)">
			<stop  offset="0" style="stop-color:#FFFFFF"/>
			<stop  offset="0.2088" style="stop-color:#FDFDFD"/>
			<stop  offset="0.3164" style="stop-color:#F5F5F6"/>
			<stop  offset="0.4009" style="stop-color:#E8E8E9"/>
			<stop  offset="0.4729" style="stop-color:#D5D6D8"/>
			<stop  offset="0.5169" style="stop-color:#C5C7C9"/>
			<stop  offset="0.558" style="stop-color:#DADBDC"/>
			<stop  offset="0.608" style="stop-color:#EBEBEC"/>
			<stop  offset="0.6703" style="stop-color:#F6F7F7"/>
			<stop  offset="0.7576" style="stop-color:#FDFDFD"/>
			<stop  offset="1" style="stop-color:#FFFFFF"/>
		</linearGradient>
		<path fill="url(#SVGID_13_)" d="M-56.021,395.876l8.648,4.997c4.517,2.617,7.267,7.104,7.844,11.918l0.009-0.037
			c0.385,3.203,2.224,6.195,5.235,7.944c3.02,1.737,6.545,1.829,9.519,0.548l-0.136,0.604c-3.176,1.254-6.663,0.997-9.639-0.714
			c-3.065-1.771-5.061-4.805-5.481-8.328l-0.015,0.041c-0.581-4.873-3.345-9.075-7.592-11.533l-9.413-5.44H-56.021z"/>
		<path fill="#C5C7C9" d="M-3.226,444.777c0.147-0.257,0.06-0.576-0.188-0.723l-21.352-22.809l-0.136,0.604l21.091,22.587
			L-3.226,444.777z"/>
		<path fill="#808184" d="M-34.357,437.913l30.414,7.11c0.219,0.079,0.571,0.055,0.717-0.197l-0.585-0.342l-30.088-6.975
			L-34.357,437.913z"/>
		
			<linearGradient id="SVGID_14_" gradientUnits="userSpaceOnUse" x1="-9922.7168" y1="-1141.5273" x2="-9321.9043" y2="-1141.5273" gradientTransform="matrix(0.0642 0 0 0.0642 565.5225 503.5067)">
			<stop  offset="0.0112" style="stop-color:#C5C7C9"/>
			<stop  offset="0.1281" style="stop-color:#C2C4C6"/>
			<stop  offset="0.2191" style="stop-color:#B8BABC"/>
			<stop  offset="0.3015" style="stop-color:#A8AAAC"/>
			<stop  offset="0.3787" style="stop-color:#919294"/>
			<stop  offset="0.4516" style="stop-color:#737476"/>
			<stop  offset="0.5056" style="stop-color:#58595B"/>
			<stop  offset="0.6695" style="stop-color:#9A9A9B"/>
			<stop  offset="0.8236" style="stop-color:#D0D1D1"/>
			<stop  offset="0.9379" style="stop-color:#F2F2F2"/>
			<stop  offset="1" style="stop-color:#FFFFFF"/>
		</linearGradient>
		<path fill="url(#SVGID_14_)" d="M-71.959,423.462l8.658,5.005c4.521,2.609,9.789,2.747,14.24,0.838l-0.032,0.033
			c2.975-1.277,6.49-1.182,9.5,0.558c3.018,1.749,4.861,4.755,5.235,7.972l0.458-0.402c-0.499-3.34-2.508-6.315-5.438-8.009
			c-3.025-1.747-6.744-1.967-9.957-0.59l0.032-0.032c-4.516,1.936-9.536,1.638-13.783-0.811l-9.427-5.449L-71.959,423.462z"/>
		<g>
			<polygon fill="#FFFFFF" points="-79.898,358.261 -79.908,373.454 -80.42,373.161 -80.411,358.261 			"/>
			
				<linearGradient id="SVGID_15_" gradientUnits="userSpaceOnUse" x1="-10287.9814" y1="-2324.0313" x2="-10032.5957" y2="-2324.0313" gradientTransform="matrix(0.0642 0 0 0.0642 565.5342 503.5102)">
				<stop  offset="0" style="stop-color:#808184"/>
				<stop  offset="1" style="stop-color:#FFFFFF"/>
			</linearGradient>
			<path fill="url(#SVGID_15_)" d="M-95.842,358.28c0-4.384,3.57-7.945,7.954-7.945c2.124,0,4.118,0.824,5.619,2.325
				c1.501,1.492,2.325,3.497,2.325,5.611h-0.512c0-4.1-3.327-7.423-7.432-7.423c-4.109,0-7.441,3.332-7.441,7.432H-95.842z"/>
			<polygon fill="#808184" points="-95.795,358.261 -95.795,373.445 -95.283,373.152 -95.283,358.261 			"/>
			<polygon fill="#FFFFFF" points="-95.795,373.445 -87.843,378.039 -87.843,377.444 -95.283,373.152 			"/>
			<polygon fill="#FFFFFF" points="-79.908,373.454 -87.843,378.039 -87.843,377.444 -80.42,373.161 			"/>
			<polygon fill="#C5C7C9" points="-157.546,373.417 -118.631,395.876 -119.655,395.881 -158.242,373.6 			"/>
			<polygon fill="#FFFFFF" points="-153.995,366.251 -158.242,373.6 -157.546,373.417 -153.812,366.946 			"/>
			<polygon fill="#FFFFFF" points="-111.153,390.971 -153.995,366.251 -153.812,366.946 -111.153,391.561 			"/>
			<polygon fill="#FFFFFF" points="-103.218,386.981 -111.153,391.561 -111.153,390.971 -103.731,386.679 			"/>
			<polygon fill="#FFFFFF" points="-103.218,377.801 -103.218,386.981 -103.731,386.679 -103.731,378.089 			"/>
			<polygon fill="#C5C7C9" points="-145.859,353.182 -103.218,377.801 -103.731,378.089 -146.563,353.374 			"/>
			<polygon fill="#FFFFFF" points="-142.308,346.015 -146.563,353.374 -145.859,353.182 -142.12,346.71 			"/>
			<polygon fill="#FFFFFF" points="-103.722,368.278 -142.308,346.015 -142.12,346.71 -103.209,369.161 			"/>
			<path fill="#FFFFFF" d="M-103.722,368.278v-9.995c0.004-5.217,2.517-9.843,6.397-12.744l-0.036,0.009
				c2.581-1.94,4.26-5.025,4.26-8.503c0-3.491-1.68-6.584-4.279-8.52l0.595-0.188c2.664,2.128,4.197,5.276,4.197,8.708
				c0,3.538-1.629,6.782-4.467,8.906l0.038-0.005c-3.932,2.933-6.188,7.436-6.192,12.337v10.877L-103.722,368.278z"/>
			<path fill="#FFFFFF" d="M-87.773,298.103c-0.293,0-0.532,0.238-0.532,0.531l-9.074,29.891l0.595-0.188l9.011-29.558V298.103z"/>
			<path fill="#FFFFFF" d="M-78.196,328.521l-9.048-29.886c-0.04-0.238-0.237-0.531-0.529-0.531v0.677l9.001,29.544L-78.196,328.521
				z"/>
			
				<linearGradient id="SVGID_16_" gradientUnits="userSpaceOnUse" x1="-6364.4399" y1="-3148.2368" x2="-6364.4399" y2="-2828.2937" gradientTransform="matrix(0.1284 0 0 0.1284 739.7716 731.2684)">
				<stop  offset="0" style="stop-color:#58595B"/>
				<stop  offset="0.0558" style="stop-color:#616163"/>
				<stop  offset="0.1451" style="stop-color:#78797A"/>
				<stop  offset="0.2567" style="stop-color:#9E9EA0"/>
				<stop  offset="0.3849" style="stop-color:#D2D2D3"/>
				<stop  offset="0.4831" style="stop-color:#FFFFFF"/>
				<stop  offset="0.7142" style="stop-color:#C9C9CA"/>
				<stop  offset="1" style="stop-color:#808184"/>
			</linearGradient>
			<path fill="url(#SVGID_16_)" d="M-71.862,368.283v-9.999c0-5.221-2.512-9.847-6.394-12.753l0.041,0.014
				c-2.586-1.936-4.264-5.03-4.264-8.508c0.008-3.487,1.693-6.58,4.283-8.516l-0.576-0.196c-2.646,2.105-4.21,5.336-4.21,8.712
				c-0.01,3.492,1.665,6.824,4.457,8.915l-0.037-0.009c3.936,2.938,6.187,7.44,6.187,12.341v10.887L-71.862,368.283z"/>
		</g>
	</g>
	<g>
		<polygon fill="#EC1C24" points="567.458,306.62 567.458,486.089 604.205,486.089 604.205,410.804 636.063,410.804 
			636.063,486.089 672.641,486.089 672.641,306.62 636.084,306.62 636.084,378.119 604.196,378.119 604.196,306.62 		"/>
		<polygon fill="#EC1C24" points="283.986,306.62 283.986,486.089 317.63,486.089 317.63,371.994 337.394,486.089 359.79,486.089 
			379.883,371.994 379.883,486.089 413.656,486.089 413.656,306.62 363.6,306.62 348.802,392.905 334.023,306.62 		"/>
		<polygon fill="#EC1C24" points="72.638,306.62 95.024,386.801 117.42,306.62 153.956,306.62 114.548,427.199 114.548,486.089 
			75.519,486.089 75.519,427.199 36.091,306.62 		"/>
		<path fill="#EC1C24" d="M231.584,306.62h-48.631l-31.95,179.469h36.317l6.133-42.696h27.452l6.133,42.696h36.536L231.584,306.62z
			 M207.184,347.187l9.084,63.6H198.09L207.184,347.187z"/>
		<path fill="#EC1C24" d="M514.828,306.62h-48.631l-31.959,179.469h36.336l6.123-42.696h27.462l6.122,42.696h36.535L514.828,306.62z
			 M490.438,347.187l9.076,63.6h-18.172L490.438,347.187z"/>
		<path fill="#EC1C24" d="M774.013,306.62H725.37l-31.95,179.469h36.336l6.123-42.696h27.464l6.122,42.696H806L774.013,306.62z
			 M749.621,347.187l9.074,63.6h-18.169L749.621,347.187z"/>
	</g>
</g>
</svg>
